<svg width="105" height="107" viewBox="0 0 105 107" fill="none" xmlns="http://www.w3.org/2000/svg">
<g filter="url(#filter0_d)">
<g clip-path="url(#clip0)">
<rect x="4" width="97" height="99" rx="21" fill="white"/>
<path d="M53.6587 36.013C53.6587 32.379 53.3427 29.9563 52.7107 28.745C52.0787 27.5337 50.604 26.928 48.2867 26.928C45.9694 26.928 43.336 27.8497 40.3867 29.693V35.46L41.2557 54.025L30.6697 56L31.6177 36.803C31.407 29.7457 30.8277 23.4257 29.8797 17.843L39.4387 15.789C39.8074 18.8437 40.0707 21.8193 40.2287 24.716C41.0187 23.6627 41.914 22.6357 42.9147 21.635C43.9154 20.5817 45.4954 19.423 47.6547 18.159C49.814 16.8423 51.9997 16.184 54.2117 16.184C56.4237 16.184 58.2934 16.895 59.8207 18.317C61.348 19.739 62.3224 21.6877 62.7437 24.163C67.115 18.8437 71.539 16.184 76.0157 16.184C78.807 16.184 81.019 17.132 82.6517 19.028C84.2844 20.8713 85.1007 23.3993 85.1007 26.612L84.6267 35.46L85.4957 54.42L74.8307 56.395L75.7787 36.013C75.7787 32.379 75.4627 29.9563 74.8307 28.745C74.1987 27.5337 72.7504 26.928 70.4857 26.928C68.221 26.928 65.6667 27.797 62.8227 29.535L62.5067 35.46L63.3757 54.42L52.7107 56.395L53.6587 36.013Z" fill="url(#paint0_linear)"/>
<path d="M51.3413 62.4037C51.3413 66.0377 51.6573 68.4603 52.2893 69.6717C52.9213 70.883 54.396 71.4887 56.7133 71.4887C59.0307 71.4887 61.664 70.567 64.6133 68.7237L64.6133 62.9567L63.7443 44.3917L74.3303 42.4167L73.3823 61.6137C73.593 68.671 74.1723 74.991 75.1203 80.5737L65.5613 82.6277C65.1927 79.573 64.9293 76.5973 64.7713 73.7007C63.9813 74.754 63.086 75.781 62.0853 76.7817C61.0847 77.835 59.5047 78.9937 57.3453 80.2577C55.186 81.5743 53.0003 82.2327 50.7883 82.2327C48.5763 82.2327 46.7067 81.5217 45.1793 80.0997C43.652 78.6777 42.6777 76.729 42.2563 74.2537C37.885 79.573 33.461 82.2327 28.9843 82.2327C26.193 82.2327 23.981 81.2847 22.3483 79.3887C20.7157 77.5453 19.8993 75.0173 19.8993 71.8047L20.3733 62.9567L19.5043 43.9967L30.1693 42.0217L29.2213 62.4037C29.2213 66.0377 29.5373 68.4603 30.1693 69.6717C30.8013 70.883 32.2497 71.4887 34.5143 71.4887C36.779 71.4887 39.3333 70.6197 42.1773 68.8817L42.4933 62.9567L41.6243 43.9967L52.2893 42.0217L51.3413 62.4037Z" fill="url(#paint1_linear)"/>
</g>
</g>
<defs>
<filter id="filter0_d" x="0" y="0" width="105" height="107" filterUnits="userSpaceOnUse" color-interpolation-filters="sRGB">
<feFlood flood-opacity="0" result="BackgroundImageFix"/>
<feColorMatrix in="SourceAlpha" type="matrix" values="0 0 0 0 0 0 0 0 0 0 0 0 0 0 0 0 0 0 127 0"/>
<feOffset dy="4"/>
<feGaussianBlur stdDeviation="2"/>
<feColorMatrix type="matrix" values="0 0 0 0 0 0 0 0 0 0 0 0 0 0 0 0 0 0 0.25 0"/>
<feBlend mode="normal" in2="BackgroundImageFix" result="effect1_dropShadow"/>
<feBlend mode="normal" in="SourceGraphic" in2="effect1_dropShadow" result="shape"/>
</filter>
<linearGradient id="paint0_linear" x1="102.5" y1="62.6667" x2="16" y2="16.6667" gradientUnits="userSpaceOnUse">
<stop offset="0.378125" stop-color="#445FEB"/>
<stop offset="1" stop-opacity="0"/>
</linearGradient>
<linearGradient id="paint1_linear" x1="21" y1="108.667" x2="-28" y2="45.6667" gradientUnits="userSpaceOnUse">
<stop stop-color="#445FEB"/>
<stop offset="0.316977" stop-opacity="0.489491"/>
<stop offset="1" stop-opacity="0"/>
</linearGradient>
<clipPath id="clip0">
<rect x="4" width="97" height="99" rx="21" fill="white"/>
</clipPath>
</defs>
</svg>
